<svg xmlns="http://www.w3.org/2000/svg" xmlns:xlink="http://www.w3.org/1999/xlink" width="60" height="60" viewBox="0 0 60 60">
    <defs>
        <filter id="lgp2y48aea" width="133.2%" height="164%" x="-16.6%" y="-32%" filterUnits="objectBoundingBox">
            <feOffset in="SourceAlpha" result="shadowOffsetOuter1"/>
            <feGaussianBlur in="shadowOffsetOuter1" result="shadowBlurOuter1" stdDeviation=".5"/>
            <feColorMatrix in="shadowBlurOuter1" values="0 0 0 0 0 0 0 0 0 0 0 0 0 0 0 0 0 0 0.5 0"/>
        </filter>
        <path id="71gi4zn4yb" d="M25.313 22.383c.867 0 1.624.471 2.03 1.171h3.477c.648 0 1.172.525 1.172 1.173 0 .647-.524 1.171-1.172 1.171h-3.477c-.406.701-1.163 1.172-2.03 1.172-1.295 0-2.344-1.049-2.344-2.343 0-1.295 1.05-2.344 2.343-2.344z"/>
    </defs>
    <g fill="none" fill-rule="evenodd">
        <g>
            <g>
                <g>
                    <path fill="#FFF" d="M0 0H60V60H0z" transform="translate(-463 -655) translate(459 655) translate(4)"/>
                    <g>
                        <path fill="#000" d="M0 42.874c0 5.955.62 8.115 1.784 10.292 1.165 2.177 2.873 3.885 5.05 5.05C9.011 59.38 11.171 60 17.126 60h25.748H0zM60 0v60H42.874c5.955 0 8.115-.62 10.292-1.784 2.177-1.165 3.885-2.873 5.05-5.05C59.38 50.989 60 48.829 60 42.874V17.126c0-5.955-.62-8.115-1.784-10.292-1.165-2.177-2.873-3.885-5.05-5.05C50.989.62 48.829 0 42.874 0H60zM0 0h17.126C11.171 0 9.011.62 6.834 1.784 4.657 2.95 2.95 4.657 1.784 6.834.62 9.011 0 11.171 0 17.126V0z" transform="translate(-463 -655) translate(459 655) translate(4)"/>
                        <g>
                            <path fill="#E21E38" d="M25.313 0h.122l-.122.004v24.787H50.62c.003.173.005.347.005.521 0 13.98-11.333 25.313-25.313 25.313C11.332 50.625 0 39.292 0 25.312 0 11.332 11.333 0 25.313 0z" transform="translate(-463 -655) translate(459 655) translate(4) translate(4.688 4.688)"/>
                            <g transform="translate(-463 -655) translate(459 655) translate(4) translate(4.688 4.688)">
                                <use fill="#000" filter="url(#lgp2y48aea)" xlink:href="#71gi4zn4yb"/>
                                <use fill="#E8E8E8" xlink:href="#71gi4zn4yb"/>
                            </g>
                        </g>
                    </g>
                </g>
            </g>
        </g>
    </g>
</svg>
