<svg xmlns="http://www.w3.org/2000/svg" xmlns:xlink="http://www.w3.org/1999/xlink" width="512" height="512" viewBox="0 0 512 512">
    <defs>
        <filter id="ivgx9lydra" width="118.2%" height="135%" x="-9.1%" y="-12.5%" filterUnits="objectBoundingBox">
            <feOffset dy="2" in="SourceAlpha" result="shadowOffsetOuter1"/>
            <feGaussianBlur in="shadowOffsetOuter1" result="shadowBlurOuter1" stdDeviation="2"/>
            <feColorMatrix in="shadowBlurOuter1" values="0 0 0 0 0 0 0 0 0 0 0 0 0 0 0 0 0 0 0.5 0"/>
        </filter>
        <path id="oizdsgip4b" d="M216 191c7.403 0 13.866 4.022 17.324 10H263c5.523 0 10 4.477 10 10s-4.477 10-10 10h-29.675c-3.458 5.978-9.922 10-17.325 10-11.046 0-20-8.954-20-20s8.954-20 20-20z"/>
    </defs>
    <g fill="none" fill-rule="evenodd">
        <g>
            <rect width="492" height="492" x="10" y="10" fill="#FFF" stroke="#323232" stroke-width="20" rx="62"/>
            <g>
                <path fill="#E21E38" d="M216 0c.349 0 .697 0 1.046.002L216 .035v211.511l215.955-.001c.03 1.481.045 2.966.045 4.455 0 119.294-96.706 216-216 216S0 335.294 0 216 96.706 0 216 0z" transform="translate(40 40)"/>
                <g transform="translate(40 40)">
                    <use fill="#000" filter="url(#ivgx9lydra)" xlink:href="#oizdsgip4b"/>
                    <use fill="#E8E8E8" xlink:href="#oizdsgip4b"/>
                </g>
            </g>
        </g>
    </g>
</svg>
